<?xml version="1.0" encoding="UTF-8"?>
<svg id="Warstwa_1" data-name="Warstwa 1" xmlns="http://www.w3.org/2000/svg" viewBox="0 0 16 16">
  <defs>
    <style>
      .cls-1 {
        fill: #2a86ff;
        stroke-width: 0px;
      }
    </style>
  </defs>
  <path class="cls-1" d="m5.66,9.33c.27.15.41.22.52.31.1.08.19.18.27.29.09.12.15.26.28.54l.6,1.3c.81,1.75,1.21,2.63,1.74,2.87.46.21.98.18,1.42-.07.5-.29.81-1.2,1.44-3.03l2.25-6.58c.51-1.49.76-2.23.59-2.73-.15-.44-.49-.78-.92-.95-.5-.19-1.25.04-2.75.51l-6.72,2.07c-1.78.55-2.67.82-2.97,1.3-.27.42-.32.94-.14,1.4.21.53,1.03.97,2.67,1.85l1.72.92Z"/>
</svg>